<svg width="1150" height="44" viewBox="0 0 1150 44" fill="none" xmlns="http://www.w3.org/2000/svg">
<path d="M1168.8 0C1153.15 0 1153.15 18.1176 1137.61 18.1176C1122.07 18.1176 1121.96 0 1106.41 0C1090.87 0 1090.76 18.1176 1075.22 18.1176C1059.57 18.1176 1059.57 0 1043.91 0C1028.26 0 1028.26 18.1176 1012.72 18.1176C997.065 18.1176 997.065 0 981.522 0C965.87 0 965.87 18.1176 950.326 18.1176C934.783 18.1176 934.348 0 918.804 0C903.152 0 903.152 18.1176 887.609 18.1176C872.065 18.1176 871.848 0 856.304 0C840.652 0 840.652 18.1176 825.109 18.1176C809.456 18.1176 809.456 0 793.804 0C778.152 0 778.152 18.1176 762.609 18.1176C746.956 18.1176 746.957 0 731.413 0C715.87 0 715.652 18.1176 700 18.1176C684.348 18.1176 684.348 0 668.804 0C653.152 0 653.152 18.1176 637.609 18.1176C621.956 18.1176 621.956 0 606.304 0C590.652 0 590.652 18.1176 575.109 18.1176C559.456 18.1176 559.457 0 543.913 0C528.261 0 528.261 18.1176 512.717 18.1176C497.065 18.1176 497.065 0 481.522 0C465.87 0 465.87 18.1176 450.217 18.1176C434.565 18.1176 434.565 0 418.913 0C403.261 0 403.261 18.1176 387.609 18.1176C371.957 18.1176 371.957 0 356.304 0C340.652 0 340.652 18.1176 325 18.1176C309.348 18.1176 309.348 0 293.696 0C278.043 0 278.043 18.1176 262.391 18.1176C246.739 18.1176 246.739 0 231.087 0C215.435 0 215.435 18.1176 199.891 18.1176C184.239 18.1176 184.239 0 168.587 0C152.935 0 152.935 18.1176 137.283 18.1176C121.63 18.1176 121.63 0 105.978 0C90.3261 0 90.3261 18.1176 74.6739 18.1176C59.0217 18.1176 59.0217 0 43.3696 0C28.1522 0 28.1522 18.1176 12.5 18.1176C-3.15217 18.1176 -3.15218 0 -18.6957 0C-34.2391 0 -34.3478 18.1176 -50 18.1176V44H1200V18.1176C1184.35 18.1176 1184.35 0 1168.8 0Z" fill="white"/>
</svg>
